<mxfile host="Electron" agent="Mozilla/5.0 (Windows NT 10.0; Win64; x64) AppleWebKit/537.36 (KHTML, like Gecko) draw.io/25.0.2 Chrome/128.0.6613.186 Electron/32.2.5 Safari/537.36" version="25.0.2">
  <diagram name="Page-1" id="-GbBILsatDR1qsLduiEq">
    <mxGraphModel dx="4356" dy="2791" grid="1" gridSize="10" guides="1" tooltips="1" connect="1" arrows="1" fold="1" page="1" pageScale="1" pageWidth="1169" pageHeight="827" math="0" shadow="0">
      <root>
        <mxCell id="0" />
        <mxCell id="1" parent="0" />
        <mxCell id="7X0cWHdbuOjzXKztfqmV-2" value="Movies&amp;nbsp;&lt;span style=&quot;text-align: left;&quot;&gt;✅&lt;/span&gt;" style="rounded=1;whiteSpace=wrap;html=1;fillColor=#C7C7C7;" parent="1" vertex="1">
          <mxGeometry x="190" y="80" width="120" height="50" as="geometry" />
        </mxCell>
        <mxCell id="7X0cWHdbuOjzXKztfqmV-3" value="Apps&amp;nbsp;&lt;span style=&quot;text-align: left;&quot;&gt;✅&lt;/span&gt;" style="rounded=1;whiteSpace=wrap;html=1;" parent="1" vertex="1">
          <mxGeometry x="330" y="80" width="120" height="50" as="geometry" />
        </mxCell>
        <mxCell id="7X0cWHdbuOjzXKztfqmV-4" value="&lt;font style=&quot;font-size: 60px;&quot;&gt;+&lt;/font&gt;" style="text;html=1;align=center;verticalAlign=middle;resizable=0;points=[];autosize=1;strokeColor=none;fillColor=none;" parent="1" vertex="1">
          <mxGeometry x="720" y="60" width="60" height="90" as="geometry" />
        </mxCell>
        <mxCell id="7X0cWHdbuOjzXKztfqmV-5" value="Manga&amp;nbsp;&lt;span style=&quot;text-align: left;&quot;&gt;❌&lt;/span&gt;" style="rounded=1;whiteSpace=wrap;html=1;" parent="1" vertex="1">
          <mxGeometry x="470" y="80" width="120" height="50" as="geometry" />
        </mxCell>
        <mxCell id="7X0cWHdbuOjzXKztfqmV-6" value="File view" style="rounded=0;whiteSpace=wrap;html=1;fillColor=#D9D9D9;" parent="1" vertex="1">
          <mxGeometry x="190" y="20" width="120" height="20" as="geometry" />
        </mxCell>
        <mxCell id="7X0cWHdbuOjzXKztfqmV-7" value="Archive view" style="rounded=0;whiteSpace=wrap;html=1;" parent="1" vertex="1">
          <mxGeometry x="190" y="40" width="120" height="20" as="geometry" />
        </mxCell>
        <mxCell id="7X0cWHdbuOjzXKztfqmV-8" value="✅&amp;nbsp;Fantastic four Silver surfer 2007" style="text;html=1;align=left;verticalAlign=middle;whiteSpace=wrap;rounded=0;" parent="1" vertex="1">
          <mxGeometry x="190" y="252.5" width="210" height="30" as="geometry" />
        </mxCell>
        <mxCell id="7X0cWHdbuOjzXKztfqmV-10" value="Every entry is a file - entry must have corresponding file in order to exist - if file is deleted, alert on the left of the file name" style="shape=note;size=20;whiteSpace=wrap;html=1;" parent="1" vertex="1">
          <mxGeometry x="20" y="-110" width="180" height="80" as="geometry" />
        </mxCell>
        <mxCell id="7X0cWHdbuOjzXKztfqmV-11" value="Files do not have to be indexed, if they are not, they won&#39;t have any metadata stored about them" style="shape=note;size=20;whiteSpace=wrap;html=1;" parent="1" vertex="1">
          <mxGeometry x="210" y="-110" width="180" height="80" as="geometry" />
        </mxCell>
        <mxCell id="7X0cWHdbuOjzXKztfqmV-12" value="User can filter by main categories, then by subcategories. Main category must have subcategories turned on in their settings" style="shape=note;size=20;whiteSpace=wrap;html=1;" parent="1" vertex="1">
          <mxGeometry x="20" y="-210" width="180" height="80" as="geometry" />
        </mxCell>
        <mxCell id="7X0cWHdbuOjzXKztfqmV-13" value="Main categories and subcategories can be added similarly to files - they will correspond to folders in the file system" style="shape=note;size=20;whiteSpace=wrap;html=1;" parent="1" vertex="1">
          <mxGeometry x="210" y="-210" width="180" height="80" as="geometry" />
        </mxCell>
        <mxCell id="7X0cWHdbuOjzXKztfqmV-14" value="❌ Star wars episode 2" style="text;html=1;align=left;verticalAlign=middle;whiteSpace=wrap;rounded=0;" parent="1" vertex="1">
          <mxGeometry x="190" y="282.5" width="240" height="30" as="geometry" />
        </mxCell>
        <mxCell id="7X0cWHdbuOjzXKztfqmV-15" value="File view" style="rounded=0;whiteSpace=wrap;html=1;fillColor=#FFFFFF;" parent="1" vertex="1">
          <mxGeometry x="1370" y="20" width="120" height="20" as="geometry" />
        </mxCell>
        <mxCell id="7X0cWHdbuOjzXKztfqmV-16" value="Archive view" style="rounded=0;whiteSpace=wrap;html=1;fillColor=#EBEBEB;" parent="1" vertex="1">
          <mxGeometry x="1370" y="40" width="120" height="20" as="geometry" />
        </mxCell>
        <mxCell id="7X0cWHdbuOjzXKztfqmV-18" value="Movies" style="rounded=1;whiteSpace=wrap;html=1;fillColor=#C7C7C7;" parent="1" vertex="1">
          <mxGeometry x="1370" y="80" width="120" height="50" as="geometry" />
        </mxCell>
        <mxCell id="7X0cWHdbuOjzXKztfqmV-19" value="Apps" style="rounded=1;whiteSpace=wrap;html=1;" parent="1" vertex="1">
          <mxGeometry x="1510" y="80" width="120" height="50" as="geometry" />
        </mxCell>
        <mxCell id="7X0cWHdbuOjzXKztfqmV-21" value="✅&amp;nbsp;Fantastic four Silver surfer 2007" style="text;html=1;align=left;verticalAlign=middle;whiteSpace=wrap;rounded=0;" parent="1" vertex="1">
          <mxGeometry x="1370" y="220" width="240" height="30" as="geometry" />
        </mxCell>
        <mxCell id="7X0cWHdbuOjzXKztfqmV-23" value="&lt;font style=&quot;font-size: 60px;&quot;&gt;+&lt;/font&gt;" style="text;html=1;align=center;verticalAlign=middle;resizable=0;points=[];autosize=1;strokeColor=none;fillColor=none;" parent="1" vertex="1">
          <mxGeometry x="1630" y="60" width="60" height="90" as="geometry" />
        </mxCell>
        <mxCell id="7X0cWHdbuOjzXKztfqmV-25" style="edgeStyle=orthogonalEdgeStyle;rounded=0;orthogonalLoop=1;jettySize=auto;html=1;endArrow=none;endFill=0;strokeColor=#E6E6E6;" parent="1" source="7X0cWHdbuOjzXKztfqmV-29" target="7X0cWHdbuOjzXKztfqmV-2" edge="1">
          <mxGeometry relative="1" as="geometry">
            <mxPoint x="140" y="105" as="sourcePoint" />
            <Array as="points">
              <mxPoint x="160" y="157" />
              <mxPoint x="160" y="110" />
            </Array>
          </mxGeometry>
        </mxCell>
        <mxCell id="7X0cWHdbuOjzXKztfqmV-28" value="_others&amp;nbsp;〰️" style="rounded=1;whiteSpace=wrap;html=1;" parent="1" vertex="1">
          <mxGeometry x="600" y="80" width="120" height="50" as="geometry" />
        </mxCell>
        <mxCell id="7X0cWHdbuOjzXKztfqmV-29" value="Main folders" style="shape=note;size=20;whiteSpace=wrap;html=1;" parent="1" vertex="1">
          <mxGeometry x="20" y="140" width="110" height="35" as="geometry" />
        </mxCell>
        <mxCell id="7X0cWHdbuOjzXKztfqmV-31" style="edgeStyle=orthogonalEdgeStyle;rounded=0;orthogonalLoop=1;jettySize=auto;html=1;endArrow=none;endFill=0;strokeColor=#E6E6E6;" parent="1" source="7X0cWHdbuOjzXKztfqmV-30" target="7X0cWHdbuOjzXKztfqmV-18" edge="1">
          <mxGeometry relative="1" as="geometry" />
        </mxCell>
        <mxCell id="7X0cWHdbuOjzXKztfqmV-30" value="Main categories" style="shape=note;size=20;whiteSpace=wrap;html=1;" parent="1" vertex="1">
          <mxGeometry x="1210" y="87.5" width="110" height="35" as="geometry" />
        </mxCell>
        <mxCell id="7X0cWHdbuOjzXKztfqmV-33" style="edgeStyle=orthogonalEdgeStyle;rounded=0;orthogonalLoop=1;jettySize=auto;html=1;entryX=0.75;entryY=0;entryDx=0;entryDy=0;endArrow=none;endFill=0;strokeColor=#E6E6E6;" parent="1" source="7X0cWHdbuOjzXKztfqmV-32" target="7X0cWHdbuOjzXKztfqmV-28" edge="1">
          <mxGeometry relative="1" as="geometry">
            <Array as="points">
              <mxPoint x="690" y="23" />
            </Array>
          </mxGeometry>
        </mxCell>
        <mxCell id="7X0cWHdbuOjzXKztfqmV-32" value="Ignored folder (ignored will always be last)" style="shape=note;size=20;whiteSpace=wrap;html=1;" parent="1" vertex="1">
          <mxGeometry x="785" y="82.5" width="120" height="45" as="geometry" />
        </mxCell>
        <mxCell id="7X0cWHdbuOjzXKztfqmV-36" value="⚠️&amp;nbsp;Star wars episode 3" style="text;html=1;align=left;verticalAlign=middle;whiteSpace=wrap;rounded=0;" parent="1" vertex="1">
          <mxGeometry x="190" y="312.5" width="240" height="30" as="geometry" />
        </mxCell>
        <mxCell id="7X0cWHdbuOjzXKztfqmV-37" value="" style="sketch=0;aspect=fixed;pointerEvents=1;shadow=0;dashed=0;html=1;strokeColor=none;labelPosition=center;verticalLabelPosition=bottom;verticalAlign=top;align=center;fillColor=#000000;shape=mxgraph.mscae.enterprise.filter;rounded=0;fontFamily=Helvetica;fontSize=12;fontColor=default;" parent="1" vertex="1">
          <mxGeometry x="1090" y="86.25" width="41.67" height="37.5" as="geometry" />
        </mxCell>
        <mxCell id="7X0cWHdbuOjzXKztfqmV-38" value="Filter options" style="shape=note;size=20;whiteSpace=wrap;html=1;" parent="1" vertex="1">
          <mxGeometry x="970" width="120" height="35" as="geometry" />
        </mxCell>
        <mxCell id="7X0cWHdbuOjzXKztfqmV-39" style="edgeStyle=orthogonalEdgeStyle;rounded=0;orthogonalLoop=1;jettySize=auto;html=1;entryX=0.5;entryY=0;entryDx=0;entryDy=0;entryPerimeter=0;fontFamily=Helvetica;fontSize=12;fontColor=default;endArrow=none;endFill=0;strokeColor=#E6E6E6;" parent="1" source="7X0cWHdbuOjzXKztfqmV-38" target="7X0cWHdbuOjzXKztfqmV-37" edge="1">
          <mxGeometry relative="1" as="geometry">
            <Array as="points">
              <mxPoint x="1110" y="17" />
              <mxPoint x="1110" y="61" />
            </Array>
          </mxGeometry>
        </mxCell>
        <mxCell id="7X0cWHdbuOjzXKztfqmV-40" value="Users can define their own metadata for files (fields) - users will be able to filter using these custom fields" style="shape=note;size=20;whiteSpace=wrap;html=1;" parent="1" vertex="1">
          <mxGeometry x="590" y="-210" width="180" height="80" as="geometry" />
        </mxCell>
        <mxCell id="7X0cWHdbuOjzXKztfqmV-42" value="" style="shape=image;editableCssRules=.*;verticalLabelPosition=bottom;labelBackgroundColor=default;verticalAlign=top;aspect=fixed;imageAspect=0;image=data:image/svg+xml,PHN2ZyB4bWxucz0iaHR0cDovL3d3dy53My5vcmcvMjAwMC9zdmciIHZpZXdCb3g9Ii0wLjUgLTAuNSAyNS44NjcgMjgiIGhlaWdodD0iMjgiIHdpZHRoPSIyNS44NjciPiYjeGE7CSAgPHN0eWxlIHR5cGU9InRleHQvY3NzIj4uc3QwIHsgc3RvcC1jb2xvcjogcmdiKDAsIDAsIDApOyB9IC5zdDEgeyBzdG9wLWNvbG9yOiByZ2IoMzQsIDUzLCA3Mik7IH0gPC9zdHlsZT4mI3hhOwk8ZGVmcz4mI3hhOwkJPGxpbmVhckdyYWRpZW50IGdyYWRpZW50VW5pdHM9InVzZXJTcGFjZU9uVXNlIiB5Mj0iMjMuNjEzIiB4Mj0iMjMuMjI3IiB5MT0iMy40NzQiIHgxPSIxLjg0NiIgaWQ9IkEiPiYjeGE7CQkJPHN0b3AgY2xhc3M9InN0MCIvPiYjeGE7CQkJPHN0b3AgY2xhc3M9InN0MSIgb2Zmc2V0PSIxIi8+JiN4YTsJCTwvbGluZWFyR3JhZGllbnQ+JiN4YTsJPC9kZWZzPiYjeGE7CTxwYXRoIGZpbGw9InVybCgjQSkiIGQ9Ik0xMy4zOSAyNy41aC0xLjkxNWMtLjY1NiAwLTEuMjU3LS4yMTktMS44MDMtLjY1NmEyLjQ2IDIuNDYgMCAwIDEtLjkzMS0xLjU4NWwtLjM4My0xLjgwNC0yLjM1LTEuNDIzLTEuNjQxLjcxYTMuNjEgMy42MSAwIDAgMS0xLjA0LjE2NWMtLjUwOSAwLTEuMDAzLS4xMjgtMS40NzctLjM4My0uNDUyLS4yNzEtLjgxMy0uNjcxLTEuMDM4LTEuMTQ4bC0xLjAzOS0yLjAyM2MtLjE2OS0uMzc5LS4yNjItLjc4OS0uMjczLTEuMjA0YTIuNzUgMi43NSAwIDAgMSAxLjE0OC0yLjI5NmwxLjI1OC0uOTI5di0yLjg0NWwtMS4zMTItLjk4M0MtLjEzNiAxMC41NDYtLjUgOS43OTktLjUgOC44NTJjMC0uMzY2LjA5MS0uNzY3LjI3My0xLjIwNGwxLjA0LTIuMDIzYy4yNTUtLjUxMS42LS44OTMgMS4wMzgtMS4xNDguNDc0LS4yNTUuOTY4LS4zODMgMS40NzctLjM4My40MDIgMCAuNzQ3LjA3NCAxLjA0LjIxOWwxLjY0MS42NTYgMi4zNS0xLjQyMy4zODMtMS44MDJBMi42OCAyLjY4IDAgMCAxIDkuNzI3LjE1NmEyLjYxIDIuNjEgMCAwIDEgMS43NS0uNjU2aDEuOTEzYTIuNjEgMi42MSAwIDAgMSAxLjc1LjY1NmMuNTExLjQwMy44NC45MjkuOTg1IDEuNTg2bC4zMjcgMS44MDYgMi40MDYgMS40MjEgMS42NDItLjY1NmMuMjkxLS4xNDUuNjM3LS4yMTkgMS4wNC0uMjE5YTIuNzcgMi43NyAwIDAgMSAxLjQyMS4zODNjLjQ3My4yNTUuODQuNjM3IDEuMDk0IDEuMTQ4bC45ODUgMi4wMjNjLjIxNy4zNjYuMzI3Ljc4NC4zMjcgMS4yNTggMCAuOTEtLjM4MyAxLjY0Mi0xLjE0OCAyLjE4OGwtMS4zMTIuOTg1djIuODQ0bDEuMzEzLjkyOGMuNzY1LjU4NSAxLjE0OCAxLjMzMiAxLjE0OCAyLjI0MyAwIC40MzgtLjExLjg1OC0uMzI5IDEuMjU4bC0uOTgzIDIuMDIzYy0uMjU2LjUxMS0uNjE5Ljg5Mi0xLjA5NCAxLjE0OC0uNDM3LjI1Ni0uOTEuMzgzLTEuNDIzLjM4My0uMzY0IDAtLjcxLS4wNTQtMS4wMzgtLjE2NWwtMS42NDItLjcxLTIuNDA2IDEuNDIzLS4zMjcgMS44MDJjLS4xNDcuNjU4LS40NzQgMS4xODYtLjk4NSAxLjU4N2EyLjYxIDIuNjEgMCAwIDEtMS43NS42NTZ6bS03LjM4My04LjI1OGMuNDc0IDAgLjk0OS4xNDcgMS40MjMuNDM4bDIuNDA2IDEuNDIzYy43My40MzggMS4xNDggMS4wNCAxLjI1OCAxLjgwNGwuMzgyIDEuODA0aDEuOTE1bC4zMjktMS44MDRjLjE4Mi0uODAyLjYyLTEuNDA0IDEuMzEzLTEuODA0bDIuMzUyLTEuNDIzYTMuMDYgMy4wNiAwIDAgMSAxLjUyOS0uNDM3Yy4xODQgMCAuMzQ2LjAxNy40OTQuMDU0YTQuMTcgNC4xNyAwIDAgMSAuNDkyLjE2NWwxLjY0Mi42NTYuOTgzLTIuMDIzLTEuMjU4LS45MjljLS43NjUtLjU4NC0xLjE0OC0xLjMzLTEuMTQ4LTIuMjQydi0yLjg0NWMwLS45MS4zODMtMS42NTcgMS4xNDgtMi4yNGwxLjI1OC0uOTMxLS45ODUtMi4wMjMtMS42NC43MWMtLjMzNS4xMTEtLjY4Ni4xNjYtMS4wNC4xNjUtLjU4MyAwLTEuMDc1LS4xMjgtMS40NzctLjM4M2wtMi4zNS0xLjQ3N2EyLjY4IDIuNjggMCAwIDEtMS4zMTItMS44MDRMMTMuMzkgMi4yOWgtMS45MTVsLS4zODIgMS44MDRjLS4xMS43NjYtLjUyOCAxLjM2Ny0xLjI1OCAxLjgwNEw3LjQ4MyA3LjM3NWMtLjQwMS4yNTUtLjg5My4zODMtMS40NzUuMzgzLS4zMjkgMC0uNjkzLS4wNTYtMS4wOTQtLjE2NWwtMS42NDEtLjcxLS45ODUgMi4wMjMgMS4zMTMuOTI5Yy43NjcuNTg1IDEuMTUgMS4zMyAxLjE1IDIuMjQ0djIuODQ0YzAgLjkxLS4zODMgMS42NTctMS4xNDggMi4yNGwtMS4zMTIuOTMxIDEuMDM4IDIuMDIzIDEuNjQxLS42NTZjLjI5LS4xNDUuNjM3LS4yMTkgMS4wNC0uMjE5em02LjQtLjE2NWE1LjU3IDUuNTcgMCAwIDEtMi4xODctLjQzN2MtLjY1My0uMjg5LTEuMjQ2LS42OTctMS43NS0xLjIwMmE1Ljc3IDUuNzcgMCAwIDEtMS4yMDQtMS43NSA1LjU4IDUuNTggMCAwIDEtLjQzNy0yLjE4NyA1LjIxIDUuMjEgMCAwIDEgLjQzOC0yLjEzM2MuMjkyLS42OTMuNjkzLTEuMjk1IDEuMjA0LTEuODA0czEuMDk0LS45MSAxLjc1LTEuMjA0YTUuNiA1LjYgMCAwIDEgMi4xODgtLjQzN2MuNzY1IDAgMS40OTUuMTQ3IDIuMTg4LjQzOHMxLjI5NS42OTMgMS44MDQgMS4yMDQuOTEgMS4xMTEgMS4yMDQgMS44MDRjLjI5MS42NTYuNDM4IDEuMzY4LjQzOCAyLjEzM2E1LjYgNS42IDAgMCAxLS40MzcgMi4xODhjLS4yOS42NTMtLjY5OCAxLjI0Ni0xLjIwNCAxLjc1LS41MTEuNTExLTEuMTExLjkxLTEuODA0IDEuMjA0cy0xLjQyMy40MzYtMi4xODcuNDM2em0wLTguMzY1Yy0uNzY3IDAtMS40MjMuMjcxLTEuOTY5LjgxOS0uMjY0LjI1NS0uNDczLjU2MS0uNjE0Ljg5OXMtLjIxMS43MDMtLjIwNiAxLjA2OWMwIC43NjcuMjczIDEuNDIzLjgyMSAxLjk2OXMxLjIwMi44MjEgMS45NjkuODIxYy44MDIgMCAxLjQ3Ny0uMjczIDIuMDIzLS44MjFzLjgyMS0xLjIwNC44MjEtMS45NjktLjI3My0xLjQyMy0uODIxLTEuOTY5YTIuNzUgMi43NSAwIDAgMC0uOTI3LS42MmMtLjM0OC0uMTQxLS43MjEtLjIwOC0xLjA5Ni0uMTk5eiIvPiYjeGE7PC9zdmc+;rounded=0;align=left;fontFamily=Helvetica;fontSize=12;fontColor=default;fillColor=none;gradientColor=none;" parent="1" vertex="1">
          <mxGeometry x="450" y="20.5" width="37.14" height="40" as="geometry" />
        </mxCell>
        <mxCell id="7X0cWHdbuOjzXKztfqmV-43" value="Should be able to work across multiple drives, user will choose which drives to enable for indexing" style="shape=note;size=20;whiteSpace=wrap;html=1;" parent="1" vertex="1">
          <mxGeometry x="400" y="-210" width="180" height="80" as="geometry" />
        </mxCell>
        <mxCell id="7X0cWHdbuOjzXKztfqmV-44" value="Print function- users will be able to print lists of the indexed files and folders (pdf)" style="shape=note;size=20;whiteSpace=wrap;html=1;" parent="1" vertex="1">
          <mxGeometry x="590" y="-110" width="180" height="80" as="geometry" />
        </mxCell>
        <mxCell id="7X0cWHdbuOjzXKztfqmV-45" value="Name" style="text;html=1;align=left;verticalAlign=middle;resizable=0;points=[];autosize=1;strokeColor=none;fillColor=none;fontFamily=Helvetica;fontSize=12;fontColor=default;" parent="1" vertex="1">
          <mxGeometry x="210" y="222.5" width="60" height="30" as="geometry" />
        </mxCell>
        <mxCell id="7X0cWHdbuOjzXKztfqmV-46" value="S" style="text;html=1;align=left;verticalAlign=middle;resizable=0;points=[];autosize=1;strokeColor=none;fillColor=none;fontFamily=Helvetica;fontSize=12;fontColor=default;" parent="1" vertex="1">
          <mxGeometry x="193" y="222.5" width="30" height="30" as="geometry" />
        </mxCell>
        <mxCell id="7X0cWHdbuOjzXKztfqmV-48" style="edgeStyle=orthogonalEdgeStyle;rounded=0;orthogonalLoop=1;jettySize=auto;html=1;fontFamily=Helvetica;fontSize=12;fontColor=default;endArrow=none;endFill=0;strokeColor=#E6E6E6;" parent="1" source="7X0cWHdbuOjzXKztfqmV-47" target="7X0cWHdbuOjzXKztfqmV-46" edge="1">
          <mxGeometry relative="1" as="geometry" />
        </mxCell>
        <mxCell id="7X0cWHdbuOjzXKztfqmV-47" value="Status" style="shape=note;size=20;whiteSpace=wrap;html=1;" parent="1" vertex="1">
          <mxGeometry x="20" y="220" width="110" height="35" as="geometry" />
        </mxCell>
        <mxCell id="7X0cWHdbuOjzXKztfqmV-51" value="Path" style="text;html=1;align=left;verticalAlign=middle;resizable=0;points=[];autosize=1;strokeColor=none;fillColor=none;fontFamily=Helvetica;fontSize=12;fontColor=default;" parent="1" vertex="1">
          <mxGeometry x="979.9999999999999" y="129.5" width="50" height="30" as="geometry" />
        </mxCell>
        <mxCell id="7X0cWHdbuOjzXKztfqmV-53" value="" style="endArrow=none;html=1;rounded=0;fontFamily=Helvetica;fontSize=12;fontColor=default;" parent="1" edge="1">
          <mxGeometry width="50" height="50" relative="1" as="geometry">
            <mxPoint x="207.85" y="247.5" as="sourcePoint" />
            <mxPoint x="207.85" y="227.5" as="targetPoint" />
          </mxGeometry>
        </mxCell>
        <mxCell id="7X0cWHdbuOjzXKztfqmV-54" value="" style="endArrow=none;html=1;rounded=0;fontFamily=Helvetica;fontSize=12;fontColor=default;" parent="1" edge="1">
          <mxGeometry width="50" height="50" relative="1" as="geometry">
            <mxPoint x="410" y="247.5" as="sourcePoint" />
            <mxPoint x="410" y="227.5" as="targetPoint" />
          </mxGeometry>
        </mxCell>
        <mxCell id="7X0cWHdbuOjzXKztfqmV-56" style="edgeStyle=orthogonalEdgeStyle;rounded=0;orthogonalLoop=1;jettySize=auto;html=1;fontFamily=Helvetica;fontSize=12;fontColor=default;strokeColor=#E6E6E6;" parent="1" source="7X0cWHdbuOjzXKztfqmV-55" edge="1">
          <mxGeometry relative="1" as="geometry">
            <mxPoint x="410" y="232.5" as="targetPoint" />
            <Array as="points">
              <mxPoint x="150" y="279.5" />
              <mxPoint x="150" y="225.5" />
              <mxPoint x="410" y="225.5" />
            </Array>
          </mxGeometry>
        </mxCell>
        <mxCell id="7X0cWHdbuOjzXKztfqmV-55" value="Variable width columns" style="shape=note;size=20;whiteSpace=wrap;html=1;" parent="1" vertex="1">
          <mxGeometry x="20" y="262.5" width="110" height="35" as="geometry" />
        </mxCell>
        <mxCell id="7X0cWHdbuOjzXKztfqmV-57" value="Type" style="text;html=1;align=left;verticalAlign=middle;resizable=0;points=[];autosize=1;strokeColor=none;fillColor=none;fontFamily=Helvetica;fontSize=12;fontColor=default;" parent="1" vertex="1">
          <mxGeometry x="414" y="222" width="50" height="30" as="geometry" />
        </mxCell>
        <mxCell id="7X0cWHdbuOjzXKztfqmV-58" value="MP4" style="text;html=1;align=left;verticalAlign=middle;resizable=0;points=[];autosize=1;strokeColor=none;fillColor=none;fontFamily=Helvetica;fontSize=12;fontColor=default;" parent="1" vertex="1">
          <mxGeometry x="414" y="252" width="50" height="30" as="geometry" />
        </mxCell>
        <mxCell id="7X0cWHdbuOjzXKztfqmV-59" value="MP4" style="text;html=1;align=left;verticalAlign=middle;resizable=0;points=[];autosize=1;strokeColor=none;fillColor=none;fontFamily=Helvetica;fontSize=12;fontColor=default;" parent="1" vertex="1">
          <mxGeometry x="414" y="282.5" width="50" height="30" as="geometry" />
        </mxCell>
        <mxCell id="7X0cWHdbuOjzXKztfqmV-60" value="MOV" style="text;html=1;align=left;verticalAlign=middle;resizable=0;points=[];autosize=1;strokeColor=none;fillColor=none;fontFamily=Helvetica;fontSize=12;fontColor=default;" parent="1" vertex="1">
          <mxGeometry x="414" y="312.5" width="50" height="30" as="geometry" />
        </mxCell>
        <mxCell id="7X0cWHdbuOjzXKztfqmV-62" value="" style="endArrow=none;html=1;rounded=0;fontFamily=Helvetica;fontSize=12;fontColor=default;" parent="1" edge="1">
          <mxGeometry width="50" height="50" relative="1" as="geometry">
            <mxPoint x="464" y="247.5" as="sourcePoint" />
            <mxPoint x="464" y="227.5" as="targetPoint" />
          </mxGeometry>
        </mxCell>
        <mxCell id="7X0cWHdbuOjzXKztfqmV-63" value="Size" style="text;html=1;align=left;verticalAlign=middle;resizable=0;points=[];autosize=1;strokeColor=none;fillColor=none;fontFamily=Helvetica;fontSize=12;fontColor=default;" parent="1" vertex="1">
          <mxGeometry x="470" y="222" width="50" height="30" as="geometry" />
        </mxCell>
        <mxCell id="7X0cWHdbuOjzXKztfqmV-64" value="4.5 G" style="text;html=1;align=left;verticalAlign=middle;resizable=0;points=[];autosize=1;strokeColor=none;fillColor=none;fontFamily=Helvetica;fontSize=12;fontColor=default;" parent="1" vertex="1">
          <mxGeometry x="470" y="252" width="50" height="30" as="geometry" />
        </mxCell>
        <mxCell id="7X0cWHdbuOjzXKztfqmV-65" value="300 M" style="text;html=1;align=left;verticalAlign=middle;resizable=0;points=[];autosize=1;strokeColor=none;fillColor=none;fontFamily=Helvetica;fontSize=12;fontColor=default;" parent="1" vertex="1">
          <mxGeometry x="470" y="282.5" width="60" height="30" as="geometry" />
        </mxCell>
        <mxCell id="7X0cWHdbuOjzXKztfqmV-66" value="0 B" style="text;html=1;align=left;verticalAlign=middle;resizable=0;points=[];autosize=1;strokeColor=none;fillColor=none;fontFamily=Helvetica;fontSize=12;fontColor=default;" parent="1" vertex="1">
          <mxGeometry x="470" y="312.5" width="40" height="30" as="geometry" />
        </mxCell>
        <mxCell id="7X0cWHdbuOjzXKztfqmV-67" value="" style="endArrow=none;html=1;rounded=0;fontFamily=Helvetica;fontSize=12;fontColor=default;" parent="1" edge="1">
          <mxGeometry width="50" height="50" relative="1" as="geometry">
            <mxPoint x="530" y="247.5" as="sourcePoint" />
            <mxPoint x="530" y="227.5" as="targetPoint" />
          </mxGeometry>
        </mxCell>
        <mxCell id="7X0cWHdbuOjzXKztfqmV-68" value="Date modified" style="text;html=1;align=left;verticalAlign=middle;resizable=0;points=[];autosize=1;strokeColor=none;fillColor=none;fontFamily=Helvetica;fontSize=12;fontColor=default;" parent="1" vertex="1">
          <mxGeometry x="540" y="222" width="100" height="30" as="geometry" />
        </mxCell>
        <mxCell id="7X0cWHdbuOjzXKztfqmV-69" value="" style="endArrow=none;html=1;rounded=0;fontFamily=Helvetica;fontSize=12;fontColor=default;" parent="1" edge="1">
          <mxGeometry width="50" height="50" relative="1" as="geometry">
            <mxPoint x="659.71" y="247.5" as="sourcePoint" />
            <mxPoint x="659.71" y="227.5" as="targetPoint" />
          </mxGeometry>
        </mxCell>
        <mxCell id="7X0cWHdbuOjzXKztfqmV-70" value="03.08.2025 18:16" style="text;html=1;align=left;verticalAlign=middle;resizable=0;points=[];autosize=1;strokeColor=none;fillColor=none;fontFamily=Helvetica;fontSize=12;fontColor=default;" parent="1" vertex="1">
          <mxGeometry x="540" y="252" width="120" height="30" as="geometry" />
        </mxCell>
        <mxCell id="7X0cWHdbuOjzXKztfqmV-71" value="" style="verticalLabelPosition=bottom;html=1;verticalAlign=top;align=center;strokeColor=none;fillColor=#000203;shape=mxgraph.azure.automation;pointerEvents=1;rounded=0;fontFamily=Helvetica;fontSize=12;fontColor=default;" parent="1" vertex="1">
          <mxGeometry x="510" y="18" width="50" height="45" as="geometry" />
        </mxCell>
        <mxCell id="7X0cWHdbuOjzXKztfqmV-73" value="Automatically index new files" style="shape=note;size=20;whiteSpace=wrap;html=1;" parent="1" vertex="1">
          <mxGeometry x="400" y="-110" width="180" height="80" as="geometry" />
        </mxCell>
        <mxCell id="7X0cWHdbuOjzXKztfqmV-74" style="edgeStyle=orthogonalEdgeStyle;rounded=0;orthogonalLoop=1;jettySize=auto;html=1;entryX=0.67;entryY=0;entryDx=0;entryDy=0;entryPerimeter=0;fontFamily=Helvetica;fontSize=12;fontColor=default;endArrow=none;endFill=0;strokeColor=#E6E6E6;" parent="1" source="7X0cWHdbuOjzXKztfqmV-73" target="7X0cWHdbuOjzXKztfqmV-71" edge="1">
          <mxGeometry relative="1" as="geometry" />
        </mxCell>
        <mxCell id="7X0cWHdbuOjzXKztfqmV-75" value="✅ Star wars Clone wars" style="text;html=1;align=left;verticalAlign=middle;whiteSpace=wrap;rounded=0;" parent="1" vertex="1">
          <mxGeometry x="190" y="342.5" width="210" height="30" as="geometry" />
        </mxCell>
        <mxCell id="7X0cWHdbuOjzXKztfqmV-76" value="✅ Season 1" style="text;html=1;align=left;verticalAlign=middle;whiteSpace=wrap;rounded=0;" parent="1" vertex="1">
          <mxGeometry x="210" y="372.5" width="210" height="30" as="geometry" />
        </mxCell>
        <mxCell id="7X0cWHdbuOjzXKztfqmV-77" value="❌&amp;nbsp;Season 2" style="text;html=1;align=left;verticalAlign=middle;whiteSpace=wrap;rounded=0;" parent="1" vertex="1">
          <mxGeometry x="210" y="462.5" width="210" height="30" as="geometry" />
        </mxCell>
        <mxCell id="7X0cWHdbuOjzXKztfqmV-78" value="✅ Ep 1" style="text;html=1;align=left;verticalAlign=middle;whiteSpace=wrap;rounded=0;" parent="1" vertex="1">
          <mxGeometry x="230" y="402.5" width="210" height="30" as="geometry" />
        </mxCell>
        <mxCell id="7X0cWHdbuOjzXKztfqmV-79" value="❌&amp;nbsp;Ep 2" style="text;html=1;align=left;verticalAlign=middle;whiteSpace=wrap;rounded=0;" parent="1" vertex="1">
          <mxGeometry x="230" y="432.5" width="210" height="30" as="geometry" />
        </mxCell>
        <mxCell id="7X0cWHdbuOjzXKztfqmV-80" value="✅ Ep 1" style="text;html=1;align=left;verticalAlign=middle;whiteSpace=wrap;rounded=0;" parent="1" vertex="1">
          <mxGeometry x="230" y="492.5" width="210" height="30" as="geometry" />
        </mxCell>
        <mxCell id="7X0cWHdbuOjzXKztfqmV-81" value="❌&amp;nbsp;Ep 2" style="text;html=1;align=left;verticalAlign=middle;whiteSpace=wrap;rounded=0;" parent="1" vertex="1">
          <mxGeometry x="230" y="522.5" width="210" height="30" as="geometry" />
        </mxCell>
        <mxCell id="7X0cWHdbuOjzXKztfqmV-83" style="edgeStyle=orthogonalEdgeStyle;rounded=0;orthogonalLoop=1;jettySize=auto;html=1;fontFamily=Helvetica;fontSize=12;fontColor=default;strokeColor=#E6E6E6;endArrow=none;endFill=0;" parent="1" source="7X0cWHdbuOjzXKztfqmV-82" target="7X0cWHdbuOjzXKztfqmV-36" edge="1">
          <mxGeometry relative="1" as="geometry" />
        </mxCell>
        <mxCell id="7X0cWHdbuOjzXKztfqmV-82" value="Missing file (after it was indexed)" style="shape=note;size=20;whiteSpace=wrap;html=1;" parent="1" vertex="1">
          <mxGeometry x="20" y="310" width="110" height="35" as="geometry" />
        </mxCell>
        <mxCell id="7X0cWHdbuOjzXKztfqmV-84" value="✅ Star wars Clone wars" style="text;html=1;align=left;verticalAlign=middle;whiteSpace=wrap;rounded=0;" parent="1" vertex="1">
          <mxGeometry x="1370" y="247.5" width="210" height="30" as="geometry" />
        </mxCell>
        <mxCell id="7X0cWHdbuOjzXKztfqmV-85" value="✅ Season 1" style="text;html=1;align=left;verticalAlign=middle;whiteSpace=wrap;rounded=0;" parent="1" vertex="1">
          <mxGeometry x="1390" y="277.5" width="210" height="30" as="geometry" />
        </mxCell>
        <mxCell id="7X0cWHdbuOjzXKztfqmV-86" value="✅ Ep 1" style="text;html=1;align=left;verticalAlign=middle;whiteSpace=wrap;rounded=0;" parent="1" vertex="1">
          <mxGeometry x="1410" y="307.5" width="210" height="30" as="geometry" />
        </mxCell>
        <mxCell id="7X0cWHdbuOjzXKztfqmV-88" value="✅ Ep 1" style="text;html=1;align=left;verticalAlign=middle;whiteSpace=wrap;rounded=0;" parent="1" vertex="1">
          <mxGeometry x="1390" y="332.5" width="210" height="30" as="geometry" />
        </mxCell>
        <mxCell id="7X0cWHdbuOjzXKztfqmV-89" value="Action&amp;nbsp;&lt;span style=&quot;text-align: left;&quot;&gt;✅&lt;/span&gt;" style="rounded=1;whiteSpace=wrap;html=1;fillColor=#FFFFFF;" parent="1" vertex="1">
          <mxGeometry x="190" y="140" width="120" height="30" as="geometry" />
        </mxCell>
        <mxCell id="7X0cWHdbuOjzXKztfqmV-90" value="Sci-fi&amp;nbsp;&lt;span style=&quot;text-align: left;&quot;&gt;✅&lt;/span&gt;" style="rounded=1;whiteSpace=wrap;html=1;fillColor=#C7C7C7;" parent="1" vertex="1">
          <mxGeometry x="330" y="140" width="120" height="30" as="geometry" />
        </mxCell>
        <mxCell id="7X0cWHdbuOjzXKztfqmV-91" value="Documentaries&amp;nbsp;&lt;span style=&quot;text-align: left;&quot;&gt;✅&lt;/span&gt;" style="rounded=1;whiteSpace=wrap;html=1;fillColor=#FFFFFF;" parent="1" vertex="1">
          <mxGeometry x="470" y="140" width="120" height="30" as="geometry" />
        </mxCell>
        <mxCell id="7X0cWHdbuOjzXKztfqmV-92" value="&lt;div style=&quot;text-align: center;&quot;&gt;&lt;span style=&quot;text-align: left; background-color: initial;&quot;&gt;Educational ✅&lt;/span&gt;&lt;/div&gt;" style="rounded=1;whiteSpace=wrap;html=1;fillColor=#FFFFFF;" parent="1" vertex="1">
          <mxGeometry x="600" y="140" width="120" height="30" as="geometry" />
        </mxCell>
        <mxCell id="7X0cWHdbuOjzXKztfqmV-93" value="&lt;span style=&quot;text-align: left;&quot;&gt;Comedy ✅&lt;/span&gt;" style="rounded=1;whiteSpace=wrap;html=1;fillColor=#FFFFFF;" parent="1" vertex="1">
          <mxGeometry x="730" y="140" width="120" height="30" as="geometry" />
        </mxCell>
        <mxCell id="7X0cWHdbuOjzXKztfqmV-94" value="Fantasy&amp;nbsp;&lt;span style=&quot;text-align: left;&quot;&gt;✅&lt;/span&gt;" style="rounded=1;whiteSpace=wrap;html=1;fillColor=#FFFFFF;" parent="1" vertex="1">
          <mxGeometry x="190" y="180" width="120" height="30" as="geometry" />
        </mxCell>
        <mxCell id="7X0cWHdbuOjzXKztfqmV-95" value="Romances&amp;nbsp;&lt;span style=&quot;text-align: left;&quot;&gt;❌&lt;/span&gt;" style="rounded=1;whiteSpace=wrap;html=1;fillColor=#FFFFFF;" parent="1" vertex="1">
          <mxGeometry x="330" y="180" width="120" height="30" as="geometry" />
        </mxCell>
        <mxCell id="7X0cWHdbuOjzXKztfqmV-103" value="Action" style="rounded=1;whiteSpace=wrap;html=1;fillColor=#FFFFFF;" parent="1" vertex="1">
          <mxGeometry x="1370" y="140" width="120" height="30" as="geometry" />
        </mxCell>
        <mxCell id="7X0cWHdbuOjzXKztfqmV-104" value="Sci-fi" style="rounded=1;whiteSpace=wrap;html=1;fillColor=#C7C7C7;" parent="1" vertex="1">
          <mxGeometry x="1510" y="140" width="120" height="30" as="geometry" />
        </mxCell>
        <mxCell id="7X0cWHdbuOjzXKztfqmV-105" value="Documentaries" style="rounded=1;whiteSpace=wrap;html=1;fillColor=#FFFFFF;" parent="1" vertex="1">
          <mxGeometry x="1650" y="140" width="120" height="30" as="geometry" />
        </mxCell>
        <mxCell id="7X0cWHdbuOjzXKztfqmV-106" value="&lt;div style=&quot;text-align: center;&quot;&gt;&lt;span style=&quot;text-align: left; background-color: initial;&quot;&gt;Educational&lt;/span&gt;&lt;/div&gt;" style="rounded=1;whiteSpace=wrap;html=1;fillColor=#FFFFFF;" parent="1" vertex="1">
          <mxGeometry x="1780" y="140" width="120" height="30" as="geometry" />
        </mxCell>
        <mxCell id="7X0cWHdbuOjzXKztfqmV-107" value="&lt;span style=&quot;text-align: left;&quot;&gt;Comedy&lt;/span&gt;" style="rounded=1;whiteSpace=wrap;html=1;fillColor=#FFFFFF;" parent="1" vertex="1">
          <mxGeometry x="1910" y="140" width="120" height="30" as="geometry" />
        </mxCell>
        <mxCell id="7X0cWHdbuOjzXKztfqmV-108" value="Fantasy" style="rounded=1;whiteSpace=wrap;html=1;fillColor=#FFFFFF;" parent="1" vertex="1">
          <mxGeometry x="1370" y="180" width="120" height="30" as="geometry" />
        </mxCell>
        <mxCell id="7X0cWHdbuOjzXKztfqmV-110" value="" style="labelPosition=right;align=left;strokeWidth=1;shape=mxgraph.mockup.markup.curlyBrace;html=1;shadow=0;dashed=0;strokeColor=#E6E6E6;direction=north;rounded=0;verticalAlign=middle;fontFamily=Helvetica;fontSize=12;fontColor=default;fillColor=none;gradientColor=none;rotation=-180;" parent="1" vertex="1">
          <mxGeometry x="860" y="80" width="20" height="150" as="geometry" />
        </mxCell>
        <mxCell id="7X0cWHdbuOjzXKztfqmV-111" value="..." style="text;html=1;align=center;verticalAlign=middle;resizable=0;points=[];autosize=1;strokeColor=none;fillColor=none;fontFamily=Helvetica;fontSize=12;fontColor=default;" parent="1" vertex="1">
          <mxGeometry x="830" y="200" width="30" height="30" as="geometry" />
        </mxCell>
        <mxCell id="7X0cWHdbuOjzXKztfqmV-112" value="Infinite tree of sub-categories" style="shape=note;size=20;whiteSpace=wrap;html=1;" parent="1" vertex="1">
          <mxGeometry x="780" y="-110" width="180" height="80" as="geometry" />
        </mxCell>
        <mxCell id="7X0cWHdbuOjzXKztfqmV-113" style="edgeStyle=orthogonalEdgeStyle;rounded=0;orthogonalLoop=1;jettySize=auto;html=1;fontFamily=Helvetica;fontSize=12;fontColor=default;endArrow=none;endFill=0;strokeColor=#E6E6E6;" parent="1" source="7X0cWHdbuOjzXKztfqmV-112" edge="1">
          <mxGeometry relative="1" as="geometry">
            <mxPoint x="880" y="155" as="targetPoint" />
            <Array as="points">
              <mxPoint x="920" y="155" />
              <mxPoint x="880" y="155" />
            </Array>
          </mxGeometry>
        </mxCell>
        <mxCell id="7X0cWHdbuOjzXKztfqmV-114" value="Marking folders as content (end-content) - for example manga - chapter will be marker as a final content - images inside will be ignored to indexing" style="shape=note;size=20;whiteSpace=wrap;html=1;" parent="1" vertex="1">
          <mxGeometry x="780" y="-210" width="180" height="80" as="geometry" />
        </mxCell>
        <mxCell id="rd4iEZmzN8R7-TWCYtcI-1" value="" style="sketch=0;pointerEvents=1;shadow=0;dashed=0;html=1;strokeColor=none;fillColor=#000000;labelPosition=center;verticalLabelPosition=bottom;verticalAlign=top;outlineConnect=0;align=center;shape=mxgraph.office.concepts.book_journal;" parent="1" vertex="1">
          <mxGeometry x="390" y="21" width="32.63" height="39" as="geometry" />
        </mxCell>
        <mxCell id="rd4iEZmzN8R7-TWCYtcI-3" style="edgeStyle=orthogonalEdgeStyle;rounded=0;orthogonalLoop=1;jettySize=auto;html=1;endArrow=none;endFill=0;strokeColor=#E6E6E6;" parent="1" source="rd4iEZmzN8R7-TWCYtcI-2" target="rd4iEZmzN8R7-TWCYtcI-1" edge="1">
          <mxGeometry relative="1" as="geometry">
            <Array as="points">
              <mxPoint x="75" y="-10" />
              <mxPoint x="410" y="-10" />
            </Array>
          </mxGeometry>
        </mxCell>
        <mxCell id="rd4iEZmzN8R7-TWCYtcI-2" value="Category edits/settings" style="shape=note;size=20;whiteSpace=wrap;html=1;" parent="1" vertex="1">
          <mxGeometry x="20" y="21" width="110" height="35" as="geometry" />
        </mxCell>
        <mxCell id="rd4iEZmzN8R7-TWCYtcI-4" value="Custom category and content images - set in settings" style="shape=note;size=20;whiteSpace=wrap;html=1;" parent="1" vertex="1">
          <mxGeometry x="20" y="-310" width="180" height="80" as="geometry" />
        </mxCell>
        <mxCell id="rd4iEZmzN8R7-TWCYtcI-23" style="edgeStyle=orthogonalEdgeStyle;rounded=0;orthogonalLoop=1;jettySize=auto;html=1;endArrow=none;endFill=0;strokeColor=#E6E6E6;" parent="1" source="rd4iEZmzN8R7-TWCYtcI-5" target="rd4iEZmzN8R7-TWCYtcI-8" edge="1">
          <mxGeometry relative="1" as="geometry">
            <mxPoint x="1210" y="-250" as="sourcePoint" />
            <Array as="points">
              <mxPoint x="1210" y="-70" />
              <mxPoint x="1210" y="-390" />
            </Array>
          </mxGeometry>
        </mxCell>
        <mxCell id="rd4iEZmzN8R7-TWCYtcI-5" value="Graph visualizing the categories (Obsidian-like)" style="shape=note;size=20;whiteSpace=wrap;html=1;" parent="1" vertex="1">
          <mxGeometry x="970" y="-110" width="180" height="80" as="geometry" />
        </mxCell>
        <mxCell id="rd4iEZmzN8R7-TWCYtcI-6" value="PC" style="ellipse;whiteSpace=wrap;html=1;aspect=fixed;" parent="1" vertex="1">
          <mxGeometry x="1350" y="-263" width="50" height="50" as="geometry" />
        </mxCell>
        <mxCell id="rd4iEZmzN8R7-TWCYtcI-16" style="rounded=0;orthogonalLoop=1;jettySize=auto;html=1;endArrow=none;endFill=0;" parent="1" source="rd4iEZmzN8R7-TWCYtcI-7" target="rd4iEZmzN8R7-TWCYtcI-6" edge="1">
          <mxGeometry relative="1" as="geometry" />
        </mxCell>
        <mxCell id="rd4iEZmzN8R7-TWCYtcI-7" value="Apps" style="ellipse;whiteSpace=wrap;html=1;aspect=fixed;" parent="1" vertex="1">
          <mxGeometry x="1430" y="-333" width="60" height="60" as="geometry" />
        </mxCell>
        <mxCell id="rd4iEZmzN8R7-TWCYtcI-15" style="rounded=0;orthogonalLoop=1;jettySize=auto;html=1;endArrow=none;endFill=0;" parent="1" source="rd4iEZmzN8R7-TWCYtcI-8" target="rd4iEZmzN8R7-TWCYtcI-7" edge="1">
          <mxGeometry relative="1" as="geometry" />
        </mxCell>
        <mxCell id="rd4iEZmzN8R7-TWCYtcI-17" style="rounded=0;orthogonalLoop=1;jettySize=auto;html=1;endArrow=none;endFill=0;" parent="1" source="rd4iEZmzN8R7-TWCYtcI-8" target="rd4iEZmzN8R7-TWCYtcI-9" edge="1">
          <mxGeometry relative="1" as="geometry" />
        </mxCell>
        <mxCell id="rd4iEZmzN8R7-TWCYtcI-18" style="rounded=0;orthogonalLoop=1;jettySize=auto;html=1;endArrow=none;endFill=0;" parent="1" source="rd4iEZmzN8R7-TWCYtcI-8" target="rd4iEZmzN8R7-TWCYtcI-10" edge="1">
          <mxGeometry relative="1" as="geometry" />
        </mxCell>
        <mxCell id="rd4iEZmzN8R7-TWCYtcI-19" style="rounded=0;orthogonalLoop=1;jettySize=auto;html=1;endArrow=none;endFill=0;" parent="1" source="rd4iEZmzN8R7-TWCYtcI-8" target="rd4iEZmzN8R7-TWCYtcI-14" edge="1">
          <mxGeometry relative="1" as="geometry" />
        </mxCell>
        <mxCell id="rd4iEZmzN8R7-TWCYtcI-8" value="ROOT" style="ellipse;whiteSpace=wrap;html=1;aspect=fixed;" parent="1" vertex="1">
          <mxGeometry x="1530" y="-423" width="80" height="80" as="geometry" />
        </mxCell>
        <mxCell id="rd4iEZmzN8R7-TWCYtcI-9" value="" style="ellipse;whiteSpace=wrap;html=1;aspect=fixed;" parent="1" vertex="1">
          <mxGeometry x="1530" y="-293" width="60" height="60" as="geometry" />
        </mxCell>
        <mxCell id="rd4iEZmzN8R7-TWCYtcI-10" value="" style="ellipse;whiteSpace=wrap;html=1;aspect=fixed;" parent="1" vertex="1">
          <mxGeometry x="1640" y="-323" width="60" height="60" as="geometry" />
        </mxCell>
        <mxCell id="rd4iEZmzN8R7-TWCYtcI-11" value="Sci-fi" style="ellipse;whiteSpace=wrap;html=1;aspect=fixed;" parent="1" vertex="1">
          <mxGeometry x="1390" y="-556" width="50" height="50" as="geometry" />
        </mxCell>
        <mxCell id="rd4iEZmzN8R7-TWCYtcI-12" value="Docu-&lt;br&gt;mentaries" style="ellipse;whiteSpace=wrap;html=1;aspect=fixed;" parent="1" vertex="1">
          <mxGeometry x="1460" y="-583" width="53" height="53" as="geometry" />
        </mxCell>
        <mxCell id="rd4iEZmzN8R7-TWCYtcI-13" value="Comedy" style="ellipse;whiteSpace=wrap;html=1;aspect=fixed;" parent="1" vertex="1">
          <mxGeometry x="1537" y="-593" width="53" height="53" as="geometry" />
        </mxCell>
        <mxCell id="rd4iEZmzN8R7-TWCYtcI-20" style="rounded=0;orthogonalLoop=1;jettySize=auto;html=1;endArrow=none;endFill=0;" parent="1" source="rd4iEZmzN8R7-TWCYtcI-14" target="rd4iEZmzN8R7-TWCYtcI-11" edge="1">
          <mxGeometry relative="1" as="geometry" />
        </mxCell>
        <mxCell id="rd4iEZmzN8R7-TWCYtcI-21" style="rounded=0;orthogonalLoop=1;jettySize=auto;html=1;endArrow=none;endFill=0;" parent="1" source="rd4iEZmzN8R7-TWCYtcI-14" target="rd4iEZmzN8R7-TWCYtcI-12" edge="1">
          <mxGeometry relative="1" as="geometry" />
        </mxCell>
        <mxCell id="rd4iEZmzN8R7-TWCYtcI-22" style="rounded=0;orthogonalLoop=1;jettySize=auto;html=1;endArrow=none;endFill=0;" parent="1" source="rd4iEZmzN8R7-TWCYtcI-14" target="rd4iEZmzN8R7-TWCYtcI-13" edge="1">
          <mxGeometry relative="1" as="geometry" />
        </mxCell>
        <mxCell id="rd4iEZmzN8R7-TWCYtcI-14" value="Movies" style="ellipse;whiteSpace=wrap;html=1;aspect=fixed;" parent="1" vertex="1">
          <mxGeometry x="1477" y="-506" width="60" height="60" as="geometry" />
        </mxCell>
        <mxCell id="rd4iEZmzN8R7-TWCYtcI-24" value="Toggle to hide categories/content or files/folders" style="shape=note;size=20;whiteSpace=wrap;html=1;" parent="1" vertex="1">
          <mxGeometry x="210" y="-310" width="180" height="80" as="geometry" />
        </mxCell>
        <mxCell id="rd4iEZmzN8R7-TWCYtcI-26" value="&lt;h1 style=&quot;margin-top: 0px;&quot;&gt;Terminology&lt;/h1&gt;&lt;div&gt;&lt;ul&gt;&lt;li&gt;Folders - file system folder&lt;/li&gt;&lt;li&gt;File - files in file system&lt;/li&gt;&lt;li&gt;Archive - virtual space of categories and content&lt;/li&gt;&lt;li&gt;Content - indexed/categorized files&lt;/li&gt;&lt;ul&gt;&lt;li&gt;have 1...n categories as parent categories&lt;/li&gt;&lt;/ul&gt;&lt;li&gt;Categories - indexed folders&lt;/li&gt;&lt;ul&gt;&lt;li&gt;can be automatically created from folders&lt;/li&gt;&lt;/ul&gt;&lt;/ul&gt;&lt;/div&gt;" style="text;html=1;whiteSpace=wrap;overflow=hidden;rounded=0;" parent="1" vertex="1">
          <mxGeometry x="-460" y="-310" width="450" height="287" as="geometry" />
        </mxCell>
        <mxCell id="rd4iEZmzN8R7-TWCYtcI-27" value="File view" style="rounded=0;whiteSpace=wrap;html=1;fillColor=#FFFFFF;" parent="1" vertex="1">
          <mxGeometry x="1280" y="-700" width="120" height="20" as="geometry" />
        </mxCell>
        <mxCell id="rd4iEZmzN8R7-TWCYtcI-28" value="Archive view" style="rounded=0;whiteSpace=wrap;html=1;fillColor=#EBEBEB;" parent="1" vertex="1">
          <mxGeometry x="1280" y="-680" width="120" height="20" as="geometry" />
        </mxCell>
        <mxCell id="rd4iEZmzN8R7-TWCYtcI-29" value="File view" style="rounded=0;whiteSpace=wrap;html=1;fillColor=#D9D9D9;" parent="1" vertex="1">
          <mxGeometry x="1820" y="-700" width="120" height="20" as="geometry" />
        </mxCell>
        <mxCell id="rd4iEZmzN8R7-TWCYtcI-30" value="Archive view" style="rounded=0;whiteSpace=wrap;html=1;" parent="1" vertex="1">
          <mxGeometry x="1820" y="-680" width="120" height="20" as="geometry" />
        </mxCell>
        <mxCell id="rd4iEZmzN8R7-TWCYtcI-31" value="PC" style="ellipse;whiteSpace=wrap;html=1;aspect=fixed;" parent="1" vertex="1">
          <mxGeometry x="1780" y="-260" width="50" height="50" as="geometry" />
        </mxCell>
        <mxCell id="rd4iEZmzN8R7-TWCYtcI-32" style="rounded=0;orthogonalLoop=1;jettySize=auto;html=1;endArrow=none;endFill=0;" parent="1" source="rd4iEZmzN8R7-TWCYtcI-33" target="rd4iEZmzN8R7-TWCYtcI-31" edge="1">
          <mxGeometry relative="1" as="geometry" />
        </mxCell>
        <mxCell id="rd4iEZmzN8R7-TWCYtcI-33" value="Apps" style="ellipse;whiteSpace=wrap;html=1;aspect=fixed;" parent="1" vertex="1">
          <mxGeometry x="1860" y="-330" width="60" height="60" as="geometry" />
        </mxCell>
        <mxCell id="rd4iEZmzN8R7-TWCYtcI-34" style="rounded=0;orthogonalLoop=1;jettySize=auto;html=1;endArrow=none;endFill=0;" parent="1" source="rd4iEZmzN8R7-TWCYtcI-38" target="rd4iEZmzN8R7-TWCYtcI-33" edge="1">
          <mxGeometry relative="1" as="geometry" />
        </mxCell>
        <mxCell id="rd4iEZmzN8R7-TWCYtcI-37" style="rounded=0;orthogonalLoop=1;jettySize=auto;html=1;endArrow=none;endFill=0;" parent="1" source="rd4iEZmzN8R7-TWCYtcI-38" target="rd4iEZmzN8R7-TWCYtcI-47" edge="1">
          <mxGeometry relative="1" as="geometry" />
        </mxCell>
        <mxCell id="rd4iEZmzN8R7-TWCYtcI-38" value="F:\" style="ellipse;whiteSpace=wrap;html=1;aspect=fixed;" parent="1" vertex="1">
          <mxGeometry x="1960" y="-420" width="80" height="80" as="geometry" />
        </mxCell>
        <mxCell id="rd4iEZmzN8R7-TWCYtcI-41" value="Sci-fi" style="ellipse;whiteSpace=wrap;html=1;aspect=fixed;" parent="1" vertex="1">
          <mxGeometry x="1780" y="-490" width="50" height="50" as="geometry" />
        </mxCell>
        <mxCell id="rd4iEZmzN8R7-TWCYtcI-42" value="Docu-&lt;br&gt;mentaries" style="ellipse;whiteSpace=wrap;html=1;aspect=fixed;" parent="1" vertex="1">
          <mxGeometry x="1820" y="-556" width="53" height="53" as="geometry" />
        </mxCell>
        <mxCell id="rd4iEZmzN8R7-TWCYtcI-43" value="Comedy" style="ellipse;whiteSpace=wrap;html=1;aspect=fixed;" parent="1" vertex="1">
          <mxGeometry x="1900" y="-556" width="53" height="53" as="geometry" />
        </mxCell>
        <mxCell id="rd4iEZmzN8R7-TWCYtcI-44" style="rounded=0;orthogonalLoop=1;jettySize=auto;html=1;endArrow=none;endFill=0;" parent="1" source="rd4iEZmzN8R7-TWCYtcI-47" target="rd4iEZmzN8R7-TWCYtcI-41" edge="1">
          <mxGeometry relative="1" as="geometry" />
        </mxCell>
        <mxCell id="rd4iEZmzN8R7-TWCYtcI-45" style="rounded=0;orthogonalLoop=1;jettySize=auto;html=1;endArrow=none;endFill=0;" parent="1" source="rd4iEZmzN8R7-TWCYtcI-47" target="rd4iEZmzN8R7-TWCYtcI-42" edge="1">
          <mxGeometry relative="1" as="geometry" />
        </mxCell>
        <mxCell id="rd4iEZmzN8R7-TWCYtcI-46" style="rounded=0;orthogonalLoop=1;jettySize=auto;html=1;endArrow=none;endFill=0;" parent="1" source="rd4iEZmzN8R7-TWCYtcI-47" target="rd4iEZmzN8R7-TWCYtcI-43" edge="1">
          <mxGeometry relative="1" as="geometry" />
        </mxCell>
        <mxCell id="rd4iEZmzN8R7-TWCYtcI-47" value="Movies" style="ellipse;whiteSpace=wrap;html=1;aspect=fixed;" parent="1" vertex="1">
          <mxGeometry x="1860" y="-460" width="60" height="60" as="geometry" />
        </mxCell>
        <mxCell id="rd4iEZmzN8R7-TWCYtcI-52" style="rounded=0;orthogonalLoop=1;jettySize=auto;html=1;endArrow=none;endFill=0;" parent="1" source="rd4iEZmzN8R7-TWCYtcI-53" target="rd4iEZmzN8R7-TWCYtcI-60" edge="1">
          <mxGeometry relative="1" as="geometry" />
        </mxCell>
        <mxCell id="rd4iEZmzN8R7-TWCYtcI-53" value="D:\" style="ellipse;whiteSpace=wrap;html=1;aspect=fixed;" parent="1" vertex="1">
          <mxGeometry x="2060" y="-420" width="80" height="80" as="geometry" />
        </mxCell>
        <mxCell id="rd4iEZmzN8R7-TWCYtcI-54" value="Sci-fi" style="ellipse;whiteSpace=wrap;html=1;aspect=fixed;" parent="1" vertex="1">
          <mxGeometry x="2230" y="-446" width="50" height="50" as="geometry" />
        </mxCell>
        <mxCell id="rd4iEZmzN8R7-TWCYtcI-55" value="Docu-&lt;br&gt;mentaries" style="ellipse;whiteSpace=wrap;html=1;aspect=fixed;" parent="1" vertex="1">
          <mxGeometry x="2260" y="-373" width="53" height="53" as="geometry" />
        </mxCell>
        <mxCell id="rd4iEZmzN8R7-TWCYtcI-56" value="Comedy" style="ellipse;whiteSpace=wrap;html=1;aspect=fixed;" parent="1" vertex="1">
          <mxGeometry x="2220" y="-316" width="53" height="53" as="geometry" />
        </mxCell>
        <mxCell id="rd4iEZmzN8R7-TWCYtcI-57" style="rounded=0;orthogonalLoop=1;jettySize=auto;html=1;endArrow=none;endFill=0;" parent="1" source="rd4iEZmzN8R7-TWCYtcI-60" target="rd4iEZmzN8R7-TWCYtcI-54" edge="1">
          <mxGeometry relative="1" as="geometry" />
        </mxCell>
        <mxCell id="rd4iEZmzN8R7-TWCYtcI-58" style="rounded=0;orthogonalLoop=1;jettySize=auto;html=1;endArrow=none;endFill=0;" parent="1" source="rd4iEZmzN8R7-TWCYtcI-60" target="rd4iEZmzN8R7-TWCYtcI-55" edge="1">
          <mxGeometry relative="1" as="geometry" />
        </mxCell>
        <mxCell id="rd4iEZmzN8R7-TWCYtcI-59" style="rounded=0;orthogonalLoop=1;jettySize=auto;html=1;endArrow=none;endFill=0;" parent="1" source="rd4iEZmzN8R7-TWCYtcI-60" target="rd4iEZmzN8R7-TWCYtcI-56" edge="1">
          <mxGeometry relative="1" as="geometry" />
        </mxCell>
        <mxCell id="rd4iEZmzN8R7-TWCYtcI-60" value="Movies" style="ellipse;whiteSpace=wrap;html=1;aspect=fixed;" parent="1" vertex="1">
          <mxGeometry x="2160" y="-390" width="60" height="60" as="geometry" />
        </mxCell>
        <mxCell id="rd4iEZmzN8R7-TWCYtcI-61" value="Maybe don&#39;t show ROOT" style="shape=note;size=20;whiteSpace=wrap;html=1;" parent="1" vertex="1">
          <mxGeometry x="1590" y="-481" width="120" height="35" as="geometry" />
        </mxCell>
        <mxCell id="rd4iEZmzN8R7-TWCYtcI-62" value="Mark as indexed (for things that do not need to be indexed (e.g. memes)" style="shape=note;size=20;whiteSpace=wrap;html=1;" parent="1" vertex="1">
          <mxGeometry x="400" y="-310" width="180" height="80" as="geometry" />
        </mxCell>
        <mxCell id="8x07Dzc_7pV14a7vdXs6-1" value="Built-in terminal" style="shape=note;size=20;whiteSpace=wrap;html=1;" parent="1" vertex="1">
          <mxGeometry x="590" y="-310" width="180" height="80" as="geometry" />
        </mxCell>
        <mxCell id="8x07Dzc_7pV14a7vdXs6-2" value="Show content" style="rounded=1;fillColor=#F0F2F5;strokeColor=#D8DCE3;align=left;verticalAlign=middle;fontStyle=0;fontSize=12;labelPosition=right;verticalLabelPosition=middle;spacingLeft=10;html=1;shadow=0;dashed=0" parent="1" vertex="1">
          <mxGeometry x="1419.5" y="-700" width="21" height="21" as="geometry" />
        </mxCell>
        <mxCell id="8x07Dzc_7pV14a7vdXs6-3" value="Show files" style="rounded=1;fillColor=#F0F2F5;strokeColor=#D8DCE3;align=left;verticalAlign=middle;fontStyle=0;fontSize=12;labelPosition=right;verticalLabelPosition=middle;spacingLeft=10;html=1;shadow=0;dashed=0" parent="1" vertex="1">
          <mxGeometry x="1960" y="-700.5" width="21" height="21" as="geometry" />
        </mxCell>
        <mxCell id="WGZWQyp1dF77ynxeKhun-1" value="" style="shape=rect;fillColor=#F6F6F6;strokeColor=none;" parent="1" vertex="1">
          <mxGeometry x="585" y="20" width="370" height="40" as="geometry" />
        </mxCell>
        <mxCell id="WGZWQyp1dF77ynxeKhun-2" value="" style="html=1;strokeWidth=1;shadow=0;dashed=0;shape=mxgraph.ios7ui.marginRect;rx=3;ry=3;rectMargin=5;fillColor=#E4E4E4;strokeColor=none;" parent="WGZWQyp1dF77ynxeKhun-1" vertex="1">
          <mxGeometry width="369.99999999999994" height="40" as="geometry" />
        </mxCell>
        <mxCell id="WGZWQyp1dF77ynxeKhun-3" value="Search" style="shape=mxgraph.ios7.icons.looking_glass;strokeColor=#878789;fillColor=none;fontColor=#878789;labelPosition=right;verticalLabelPosition=middle;align=left;verticalAlign=middle;fontSize=6;fontStyle=0;spacingTop=2;sketch=0;html=1;" parent="WGZWQyp1dF77ynxeKhun-1" vertex="1">
          <mxGeometry x="0.5" y="0.5" width="6" height="6" relative="1" as="geometry">
            <mxPoint x="-17" y="-3" as="offset" />
          </mxGeometry>
        </mxCell>
        <mxCell id="1qIl9uQYfnAEhOE-6Nw9-1" value="Optional cover image for content or category - user will be able to upload png/jpg and set it as cover, the file (png) will be save as name of the cat/content appended by -cover.xyz" style="shape=note;size=20;whiteSpace=wrap;html=1;" vertex="1" parent="1">
          <mxGeometry x="970" y="-210" width="180" height="80" as="geometry" />
        </mxCell>
        <mxCell id="1qIl9uQYfnAEhOE-6Nw9-18" style="edgeStyle=orthogonalEdgeStyle;rounded=0;orthogonalLoop=1;jettySize=auto;html=1;" edge="1" parent="1" source="1qIl9uQYfnAEhOE-6Nw9-16">
          <mxGeometry relative="1" as="geometry">
            <mxPoint x="-20" y="97.5" as="targetPoint" />
          </mxGeometry>
        </mxCell>
        <mxCell id="1qIl9uQYfnAEhOE-6Nw9-20" style="edgeStyle=orthogonalEdgeStyle;rounded=0;orthogonalLoop=1;jettySize=auto;html=1;endArrow=none;endFill=0;strokeColor=#E6E6E6;" edge="1" parent="1" source="1qIl9uQYfnAEhOE-6Nw9-16" target="1qIl9uQYfnAEhOE-6Nw9-19">
          <mxGeometry relative="1" as="geometry">
            <Array as="points">
              <mxPoint x="150" y="97" />
              <mxPoint x="150" y="10" />
              <mxPoint x="350" y="10" />
            </Array>
          </mxGeometry>
        </mxCell>
        <mxCell id="1qIl9uQYfnAEhOE-6Nw9-16" value="Collection (grid) view" style="shape=note;size=20;whiteSpace=wrap;html=1;" vertex="1" parent="1">
          <mxGeometry x="20" y="80" width="110" height="35" as="geometry" />
        </mxCell>
        <mxCell id="1qIl9uQYfnAEhOE-6Nw9-19" value="" style="html=1;verticalLabelPosition=bottom;labelBackgroundColor=#ffffff;verticalAlign=top;shadow=0;dashed=0;strokeWidth=1;shape=mxgraph.ios7ui.iconGrid;fillColor=#c0c0c0;gridSize=3,3;" vertex="1" parent="1">
          <mxGeometry x="330" y="23" width="40" height="35" as="geometry" />
        </mxCell>
        <mxCell id="1qIl9uQYfnAEhOE-6Nw9-21" value="Movies&amp;nbsp;&lt;span style=&quot;text-align: left;&quot;&gt;✅&lt;/span&gt;" style="rounded=1;whiteSpace=wrap;html=1;fillColor=#C7C7C7;" vertex="1" parent="1">
          <mxGeometry x="-1030" y="103" width="120" height="50" as="geometry" />
        </mxCell>
        <mxCell id="1qIl9uQYfnAEhOE-6Nw9-22" value="Apps&amp;nbsp;&lt;span style=&quot;text-align: left;&quot;&gt;✅&lt;/span&gt;" style="rounded=1;whiteSpace=wrap;html=1;" vertex="1" parent="1">
          <mxGeometry x="-890" y="103" width="120" height="50" as="geometry" />
        </mxCell>
        <mxCell id="1qIl9uQYfnAEhOE-6Nw9-23" value="&lt;font style=&quot;font-size: 60px;&quot;&gt;+&lt;/font&gt;" style="text;html=1;align=center;verticalAlign=middle;resizable=0;points=[];autosize=1;strokeColor=none;fillColor=none;" vertex="1" parent="1">
          <mxGeometry x="-500" y="83" width="60" height="90" as="geometry" />
        </mxCell>
        <mxCell id="1qIl9uQYfnAEhOE-6Nw9-24" value="Manga&amp;nbsp;&lt;span style=&quot;text-align: left;&quot;&gt;❌&lt;/span&gt;" style="rounded=1;whiteSpace=wrap;html=1;" vertex="1" parent="1">
          <mxGeometry x="-750" y="103" width="120" height="50" as="geometry" />
        </mxCell>
        <mxCell id="1qIl9uQYfnAEhOE-6Nw9-25" value="File view" style="rounded=0;whiteSpace=wrap;html=1;fillColor=#D9D9D9;" vertex="1" parent="1">
          <mxGeometry x="-1030" y="43" width="120" height="20" as="geometry" />
        </mxCell>
        <mxCell id="1qIl9uQYfnAEhOE-6Nw9-26" value="Archive view" style="rounded=0;whiteSpace=wrap;html=1;" vertex="1" parent="1">
          <mxGeometry x="-1030" y="63" width="120" height="20" as="geometry" />
        </mxCell>
        <mxCell id="1qIl9uQYfnAEhOE-6Nw9-29" value="_others&amp;nbsp;〰️" style="rounded=1;whiteSpace=wrap;html=1;" vertex="1" parent="1">
          <mxGeometry x="-620" y="103" width="120" height="50" as="geometry" />
        </mxCell>
        <mxCell id="1qIl9uQYfnAEhOE-6Nw9-30" style="edgeStyle=orthogonalEdgeStyle;rounded=0;orthogonalLoop=1;jettySize=auto;html=1;entryX=0.75;entryY=0;entryDx=0;entryDy=0;endArrow=none;endFill=0;strokeColor=#E6E6E6;" edge="1" parent="1" target="1qIl9uQYfnAEhOE-6Nw9-29">
          <mxGeometry relative="1" as="geometry">
            <Array as="points">
              <mxPoint x="-530" y="46" />
            </Array>
            <mxPoint x="-375.00000000000045" y="105.5" as="sourcePoint" />
          </mxGeometry>
        </mxCell>
        <mxCell id="1qIl9uQYfnAEhOE-6Nw9-34" style="edgeStyle=orthogonalEdgeStyle;rounded=0;orthogonalLoop=1;jettySize=auto;html=1;entryX=0.5;entryY=0;entryDx=0;entryDy=0;entryPerimeter=0;fontFamily=Helvetica;fontSize=12;fontColor=default;endArrow=none;endFill=0;strokeColor=#E6E6E6;" edge="1" parent="1">
          <mxGeometry relative="1" as="geometry">
            <Array as="points">
              <mxPoint x="-110" y="40" />
              <mxPoint x="-110" y="84" />
            </Array>
            <mxPoint x="-109" y="109" as="targetPoint" />
            <mxPoint x="-130.00000000000045" y="40.5" as="sourcePoint" />
          </mxGeometry>
        </mxCell>
        <mxCell id="1qIl9uQYfnAEhOE-6Nw9-35" value="" style="shape=image;editableCssRules=.*;verticalLabelPosition=bottom;labelBackgroundColor=default;verticalAlign=top;aspect=fixed;imageAspect=0;image=data:image/svg+xml,PHN2ZyB4bWxucz0iaHR0cDovL3d3dy53My5vcmcvMjAwMC9zdmciIHZpZXdCb3g9Ii0wLjUgLTAuNSAyNS44NjcgMjgiIGhlaWdodD0iMjgiIHdpZHRoPSIyNS44NjciPiYjeGE7CSAgPHN0eWxlIHR5cGU9InRleHQvY3NzIj4uc3QwIHsgc3RvcC1jb2xvcjogcmdiKDAsIDAsIDApOyB9IC5zdDEgeyBzdG9wLWNvbG9yOiByZ2IoMzQsIDUzLCA3Mik7IH0gPC9zdHlsZT4mI3hhOwk8ZGVmcz4mI3hhOwkJPGxpbmVhckdyYWRpZW50IGdyYWRpZW50VW5pdHM9InVzZXJTcGFjZU9uVXNlIiB5Mj0iMjMuNjEzIiB4Mj0iMjMuMjI3IiB5MT0iMy40NzQiIHgxPSIxLjg0NiIgaWQ9IkEiPiYjeGE7CQkJPHN0b3AgY2xhc3M9InN0MCIvPiYjeGE7CQkJPHN0b3AgY2xhc3M9InN0MSIgb2Zmc2V0PSIxIi8+JiN4YTsJCTwvbGluZWFyR3JhZGllbnQ+JiN4YTsJPC9kZWZzPiYjeGE7CTxwYXRoIGZpbGw9InVybCgjQSkiIGQ9Ik0xMy4zOSAyNy41aC0xLjkxNWMtLjY1NiAwLTEuMjU3LS4yMTktMS44MDMtLjY1NmEyLjQ2IDIuNDYgMCAwIDEtLjkzMS0xLjU4NWwtLjM4My0xLjgwNC0yLjM1LTEuNDIzLTEuNjQxLjcxYTMuNjEgMy42MSAwIDAgMS0xLjA0LjE2NWMtLjUwOSAwLTEuMDAzLS4xMjgtMS40NzctLjM4My0uNDUyLS4yNzEtLjgxMy0uNjcxLTEuMDM4LTEuMTQ4bC0xLjAzOS0yLjAyM2MtLjE2OS0uMzc5LS4yNjItLjc4OS0uMjczLTEuMjA0YTIuNzUgMi43NSAwIDAgMSAxLjE0OC0yLjI5NmwxLjI1OC0uOTI5di0yLjg0NWwtMS4zMTItLjk4M0MtLjEzNiAxMC41NDYtLjUgOS43OTktLjUgOC44NTJjMC0uMzY2LjA5MS0uNzY3LjI3My0xLjIwNGwxLjA0LTIuMDIzYy4yNTUtLjUxMS42LS44OTMgMS4wMzgtMS4xNDguNDc0LS4yNTUuOTY4LS4zODMgMS40NzctLjM4My40MDIgMCAuNzQ3LjA3NCAxLjA0LjIxOWwxLjY0MS42NTYgMi4zNS0xLjQyMy4zODMtMS44MDJBMi42OCAyLjY4IDAgMCAxIDkuNzI3LjE1NmEyLjYxIDIuNjEgMCAwIDEgMS43NS0uNjU2aDEuOTEzYTIuNjEgMi42MSAwIDAgMSAxLjc1LjY1NmMuNTExLjQwMy44NC45MjkuOTg1IDEuNTg2bC4zMjcgMS44MDYgMi40MDYgMS40MjEgMS42NDItLjY1NmMuMjkxLS4xNDUuNjM3LS4yMTkgMS4wNC0uMjE5YTIuNzcgMi43NyAwIDAgMSAxLjQyMS4zODNjLjQ3My4yNTUuODQuNjM3IDEuMDk0IDEuMTQ4bC45ODUgMi4wMjNjLjIxNy4zNjYuMzI3Ljc4NC4zMjcgMS4yNTggMCAuOTEtLjM4MyAxLjY0Mi0xLjE0OCAyLjE4OGwtMS4zMTIuOTg1djIuODQ0bDEuMzEzLjkyOGMuNzY1LjU4NSAxLjE0OCAxLjMzMiAxLjE0OCAyLjI0MyAwIC40MzgtLjExLjg1OC0uMzI5IDEuMjU4bC0uOTgzIDIuMDIzYy0uMjU2LjUxMS0uNjE5Ljg5Mi0xLjA5NCAxLjE0OC0uNDM3LjI1Ni0uOTEuMzgzLTEuNDIzLjM4My0uMzY0IDAtLjcxLS4wNTQtMS4wMzgtLjE2NWwtMS42NDItLjcxLTIuNDA2IDEuNDIzLS4zMjcgMS44MDJjLS4xNDcuNjU4LS40NzQgMS4xODYtLjk4NSAxLjU4N2EyLjYxIDIuNjEgMCAwIDEtMS43NS42NTZ6bS03LjM4My04LjI1OGMuNDc0IDAgLjk0OS4xNDcgMS40MjMuNDM4bDIuNDA2IDEuNDIzYy43My40MzggMS4xNDggMS4wNCAxLjI1OCAxLjgwNGwuMzgyIDEuODA0aDEuOTE1bC4zMjktMS44MDRjLjE4Mi0uODAyLjYyLTEuNDA0IDEuMzEzLTEuODA0bDIuMzUyLTEuNDIzYTMuMDYgMy4wNiAwIDAgMSAxLjUyOS0uNDM3Yy4xODQgMCAuMzQ2LjAxNy40OTQuMDU0YTQuMTcgNC4xNyAwIDAgMSAuNDkyLjE2NWwxLjY0Mi42NTYuOTgzLTIuMDIzLTEuMjU4LS45MjljLS43NjUtLjU4NC0xLjE0OC0xLjMzLTEuMTQ4LTIuMjQydi0yLjg0NWMwLS45MS4zODMtMS42NTcgMS4xNDgtMi4yNGwxLjI1OC0uOTMxLS45ODUtMi4wMjMtMS42NC43MWMtLjMzNS4xMTEtLjY4Ni4xNjYtMS4wNC4xNjUtLjU4MyAwLTEuMDc1LS4xMjgtMS40NzctLjM4M2wtMi4zNS0xLjQ3N2EyLjY4IDIuNjggMCAwIDEtMS4zMTItMS44MDRMMTMuMzkgMi4yOWgtMS45MTVsLS4zODIgMS44MDRjLS4xMS43NjYtLjUyOCAxLjM2Ny0xLjI1OCAxLjgwNEw3LjQ4MyA3LjM3NWMtLjQwMS4yNTUtLjg5My4zODMtMS40NzUuMzgzLS4zMjkgMC0uNjkzLS4wNTYtMS4wOTQtLjE2NWwtMS42NDEtLjcxLS45ODUgMi4wMjMgMS4zMTMuOTI5Yy43NjcuNTg1IDEuMTUgMS4zMyAxLjE1IDIuMjQ0djIuODQ0YzAgLjkxLS4zODMgMS42NTctMS4xNDggMi4yNGwtMS4zMTIuOTMxIDEuMDM4IDIuMDIzIDEuNjQxLS42NTZjLjI5LS4xNDUuNjM3LS4yMTkgMS4wNC0uMjE5em02LjQtLjE2NWE1LjU3IDUuNTcgMCAwIDEtMi4xODctLjQzN2MtLjY1My0uMjg5LTEuMjQ2LS42OTctMS43NS0xLjIwMmE1Ljc3IDUuNzcgMCAwIDEtMS4yMDQtMS43NSA1LjU4IDUuNTggMCAwIDEtLjQzNy0yLjE4NyA1LjIxIDUuMjEgMCAwIDEgLjQzOC0yLjEzM2MuMjkyLS42OTMuNjkzLTEuMjk1IDEuMjA0LTEuODA0czEuMDk0LS45MSAxLjc1LTEuMjA0YTUuNiA1LjYgMCAwIDEgMi4xODgtLjQzN2MuNzY1IDAgMS40OTUuMTQ3IDIuMTg4LjQzOHMxLjI5NS42OTMgMS44MDQgMS4yMDQuOTEgMS4xMTEgMS4yMDQgMS44MDRjLjI5MS42NTYuNDM4IDEuMzY4LjQzOCAyLjEzM2E1LjYgNS42IDAgMCAxLS40MzcgMi4xODhjLS4yOS42NTMtLjY5OCAxLjI0Ni0xLjIwNCAxLjc1LS41MTEuNTExLTEuMTExLjkxLTEuODA0IDEuMjA0cy0xLjQyMy40MzYtMi4xODcuNDM2em0wLTguMzY1Yy0uNzY3IDAtMS40MjMuMjcxLTEuOTY5LjgxOS0uMjY0LjI1NS0uNDczLjU2MS0uNjE0Ljg5OXMtLjIxMS43MDMtLjIwNiAxLjA2OWMwIC43NjcuMjczIDEuNDIzLjgyMSAxLjk2OXMxLjIwMi44MjEgMS45NjkuODIxYy44MDIgMCAxLjQ3Ny0uMjczIDIuMDIzLS44MjFzLjgyMS0xLjIwNC44MjEtMS45NjktLjI3My0xLjQyMy0uODIxLTEuOTY5YTIuNzUgMi43NSAwIDAgMC0uOTI3LS42MmMtLjM0OC0uMTQxLS43MjEtLjIwOC0xLjA5Ni0uMTk5eiIvPiYjeGE7PC9zdmc+;rounded=0;align=left;fontFamily=Helvetica;fontSize=12;fontColor=default;fillColor=none;gradientColor=none;" vertex="1" parent="1">
          <mxGeometry x="-770" y="43.5" width="37.14" height="40" as="geometry" />
        </mxCell>
        <mxCell id="1qIl9uQYfnAEhOE-6Nw9-54" value="" style="verticalLabelPosition=bottom;html=1;verticalAlign=top;align=center;strokeColor=none;fillColor=#000203;shape=mxgraph.azure.automation;pointerEvents=1;rounded=0;fontFamily=Helvetica;fontSize=12;fontColor=default;" vertex="1" parent="1">
          <mxGeometry x="-710" y="41" width="50" height="45" as="geometry" />
        </mxCell>
        <mxCell id="1qIl9uQYfnAEhOE-6Nw9-62" value="Action&amp;nbsp;&lt;span style=&quot;text-align: left;&quot;&gt;✅&lt;/span&gt;" style="rounded=1;whiteSpace=wrap;html=1;fillColor=#FFFFFF;" vertex="1" parent="1">
          <mxGeometry x="-1030" y="163" width="120" height="30" as="geometry" />
        </mxCell>
        <mxCell id="1qIl9uQYfnAEhOE-6Nw9-63" value="Sci-fi&amp;nbsp;&lt;span style=&quot;text-align: left;&quot;&gt;✅&lt;/span&gt;" style="rounded=1;whiteSpace=wrap;html=1;fillColor=#C7C7C7;" vertex="1" parent="1">
          <mxGeometry x="-890" y="163" width="120" height="30" as="geometry" />
        </mxCell>
        <mxCell id="1qIl9uQYfnAEhOE-6Nw9-64" value="Documentaries&amp;nbsp;&lt;span style=&quot;text-align: left;&quot;&gt;✅&lt;/span&gt;" style="rounded=1;whiteSpace=wrap;html=1;fillColor=#FFFFFF;" vertex="1" parent="1">
          <mxGeometry x="-750" y="163" width="120" height="30" as="geometry" />
        </mxCell>
        <mxCell id="1qIl9uQYfnAEhOE-6Nw9-65" value="&lt;div style=&quot;text-align: center;&quot;&gt;&lt;span style=&quot;text-align: left; background-color: initial;&quot;&gt;Educational ✅&lt;/span&gt;&lt;/div&gt;" style="rounded=1;whiteSpace=wrap;html=1;fillColor=#FFFFFF;" vertex="1" parent="1">
          <mxGeometry x="-620" y="163" width="120" height="30" as="geometry" />
        </mxCell>
        <mxCell id="1qIl9uQYfnAEhOE-6Nw9-66" value="&lt;span style=&quot;text-align: left;&quot;&gt;Comedy ✅&lt;/span&gt;" style="rounded=1;whiteSpace=wrap;html=1;fillColor=#FFFFFF;" vertex="1" parent="1">
          <mxGeometry x="-490" y="163" width="120" height="30" as="geometry" />
        </mxCell>
        <mxCell id="1qIl9uQYfnAEhOE-6Nw9-67" value="Fantasy&amp;nbsp;&lt;span style=&quot;text-align: left;&quot;&gt;✅&lt;/span&gt;" style="rounded=1;whiteSpace=wrap;html=1;fillColor=#FFFFFF;" vertex="1" parent="1">
          <mxGeometry x="-1030" y="203" width="120" height="30" as="geometry" />
        </mxCell>
        <mxCell id="1qIl9uQYfnAEhOE-6Nw9-68" value="Romances&amp;nbsp;&lt;span style=&quot;text-align: left;&quot;&gt;❌&lt;/span&gt;" style="rounded=1;whiteSpace=wrap;html=1;fillColor=#FFFFFF;" vertex="1" parent="1">
          <mxGeometry x="-890" y="203" width="120" height="30" as="geometry" />
        </mxCell>
        <mxCell id="1qIl9uQYfnAEhOE-6Nw9-71" value="" style="sketch=0;pointerEvents=1;shadow=0;dashed=0;html=1;strokeColor=none;fillColor=#000000;labelPosition=center;verticalLabelPosition=bottom;verticalAlign=top;outlineConnect=0;align=center;shape=mxgraph.office.concepts.book_journal;" vertex="1" parent="1">
          <mxGeometry x="-830" y="44" width="32.63" height="39" as="geometry" />
        </mxCell>
        <mxCell id="1qIl9uQYfnAEhOE-6Nw9-72" value="" style="shape=rect;fillColor=#F6F6F6;strokeColor=none;" vertex="1" parent="1">
          <mxGeometry x="-635" y="43" width="370" height="40" as="geometry" />
        </mxCell>
        <mxCell id="1qIl9uQYfnAEhOE-6Nw9-73" value="" style="html=1;strokeWidth=1;shadow=0;dashed=0;shape=mxgraph.ios7ui.marginRect;rx=3;ry=3;rectMargin=5;fillColor=#E4E4E4;strokeColor=none;" vertex="1" parent="1qIl9uQYfnAEhOE-6Nw9-72">
          <mxGeometry width="369.99999999999994" height="40" as="geometry" />
        </mxCell>
        <mxCell id="1qIl9uQYfnAEhOE-6Nw9-74" value="Search" style="shape=mxgraph.ios7.icons.looking_glass;strokeColor=#878789;fillColor=none;fontColor=#878789;labelPosition=right;verticalLabelPosition=middle;align=left;verticalAlign=middle;fontSize=6;fontStyle=0;spacingTop=2;sketch=0;html=1;" vertex="1" parent="1qIl9uQYfnAEhOE-6Nw9-72">
          <mxGeometry x="0.5" y="0.5" width="6" height="6" relative="1" as="geometry">
            <mxPoint x="-17" y="-3" as="offset" />
          </mxGeometry>
        </mxCell>
        <mxCell id="1qIl9uQYfnAEhOE-6Nw9-75" value="" style="html=1;verticalLabelPosition=bottom;labelBackgroundColor=#ffffff;verticalAlign=top;shadow=0;dashed=0;strokeWidth=1;shape=mxgraph.ios7ui.iconGrid;fillColor=#c0c0c0;gridSize=3,3;" vertex="1" parent="1">
          <mxGeometry x="-890" y="46" width="40" height="35" as="geometry" />
        </mxCell>
        <mxCell id="1qIl9uQYfnAEhOE-6Nw9-76" value="Star wars Episode 3" style="rounded=1;whiteSpace=wrap;html=1;strokeWidth=1;fillColor=#EBCD88;arcSize=6;glass=0;absoluteArcSize=1;gradientColor=#FFFFFF;gradientDirection=south;" vertex="1" parent="1">
          <mxGeometry x="-1030" y="247.5" width="120" height="142.5" as="geometry" />
        </mxCell>
        <mxCell id="1qIl9uQYfnAEhOE-6Nw9-78" style="edgeStyle=orthogonalEdgeStyle;rounded=0;orthogonalLoop=1;jettySize=auto;html=1;endArrow=none;endFill=0;strokeColor=#E6E6E6;" edge="1" parent="1" source="1qIl9uQYfnAEhOE-6Nw9-77" target="1qIl9uQYfnAEhOE-6Nw9-76">
          <mxGeometry relative="1" as="geometry">
            <Array as="points">
              <mxPoint x="-1105" y="280" />
            </Array>
          </mxGeometry>
        </mxCell>
        <mxCell id="1qIl9uQYfnAEhOE-6Nw9-77" value="Default color will be taken from system color" style="shape=note;size=20;whiteSpace=wrap;html=1;" vertex="1" parent="1">
          <mxGeometry x="-1160" y="187.5" width="110" height="42.5" as="geometry" />
        </mxCell>
        <mxCell id="1qIl9uQYfnAEhOE-6Nw9-80" value="Star wars: Clone wars" style="rounded=1;whiteSpace=wrap;html=1;strokeWidth=1;fillColor=#EBCD88;arcSize=6;glass=0;absoluteArcSize=1;gradientColor=#FFFFFF;gradientDirection=south;" vertex="1" parent="1">
          <mxGeometry x="-890" y="247.5" width="120" height="142.5" as="geometry" />
        </mxCell>
      </root>
    </mxGraphModel>
  </diagram>
</mxfile>
